<?xml version="1.0" standalone="no"?>
<!DOCTYPE svg PUBLIC "-//W3C//DTD SVG 20010904//EN"
 "http://www.w3.org/TR/2001/REC-SVG-20010904/DTD/svg10.dtd">
<svg version="1.0" xmlns="http://www.w3.org/2000/svg"
 width="32.000000pt" height="32.000000pt" viewBox="0 0 32.000000 32.000000"
 preserveAspectRatio="xMidYMid meet">

<g transform="translate(0.000000,32.000000) scale(0.100000,-0.100000)"
fill="#000000" stroke="none">
<path d="M114 293 c-6 -9 -24 -17 -40 -18 -25 0 -29 -4 -32 -33 -2 -18 -10
-36 -18 -39 -18 -7 -18 -37 1 -53 8 -7 15 -23 15 -35 0 -24 22 -49 33 -39 4 4
18 -1 31 -10 33 -21 36 -20 36 9 0 16 -6 25 -15 25 -24 0 -65 46 -65 73 0 13
9 36 21 51 29 37 89 37 118 0 12 -15 21 -35 21 -45 0 -14 7 -19 25 -19 18 0
25 5 25 19 0 11 -5 21 -11 23 -6 2 -14 19 -18 38 -6 30 -11 35 -35 35 -16 1
-34 9 -41 18 -16 22 -37 22 -51 0z"/>
<path d="M150 195 c-8 -9 -21 -13 -36 -9 -29 7 -31 -7 -4 -31 20 -18 21 -18
50 10 17 16 30 32 30 37 0 13 -27 9 -40 -7z"/>
<path d="M213 143 c9 -2 25 -2 35 0 9 3 1 5 -18 5 -19 0 -27 -2 -17 -5z"/>
<path d="M152 103 c2 -21 9 -29 27 -31 13 -2 28 1 34 7 8 8 5 11 -10 11 -12 0
-23 8 -26 20 -8 31 -29 24 -25 -7z"/>
<path d="M190 115 c0 -11 11 -15 40 -15 29 0 40 4 40 15 0 11 -11 15 -40 15
-29 0 -40 -4 -40 -15z"/>
<path d="M280 112 c0 -12 -11 -21 -32 -27 -32 -10 -41 -26 -19 -33 6 -2 11 2
11 10 0 8 12 13 33 13 28 0 32 4 35 28 2 19 -1 27 -12 27 -9 0 -16 -8 -16 -18z"/>
<path d="M152 38 c3 -21 9 -23 76 -26 71 -3 72 -3 72 23 0 28 -18 33 -50 13
-16 -10 -24 -10 -40 0 -11 6 -29 12 -41 12 -15 0 -20 -5 -17 -22z"/>
</g>
</svg>
